<svg xmlns="http://www.w3.org/2000/svg" width="16" height="19" viewBox="0 0 16 19">
    <g fill="#7B7B7B" fill-rule="evenodd">
        <path d="M7.937 10h.122c1.125-.02 2.034-.415 2.705-1.172 1.477-1.668 1.232-4.527 1.205-4.8-.096-2.049-1.063-3.029-1.86-3.486C9.512.2 8.818.015 8.043 0H7.98c-.426 0-1.262.07-2.064.527-.806.457-1.788 1.437-1.884 3.5-.026.274-.272 3.133 1.205 4.8.667.758 1.577 1.154 2.7 1.173zM5.056 4.124c0-.012.004-.023.004-.031.126-2.756 2.079-3.051 2.915-3.051h.046c1.036.023 2.797.445 2.916 3.051 0 .012 0 .023.004.03.003.028.272 2.641-.948 4.017-.483.546-1.128.815-1.976.822H7.98c-.844-.007-1.492-.276-1.972-.822-1.216-1.368-.955-3.993-.951-4.016z"/>
        <path d="M15.999 15.004v-.012c0-.032-.004-.064-.004-.1-.023-.797-.074-2.66-1.765-3.256l-.039-.012c-1.756-.463-3.217-1.51-3.233-1.521a.515.515 0 0 0-.732.132.554.554 0 0 0 .129.757c.066.048 1.616 1.163 3.556 1.678.908.334 1.009 1.336 1.036 2.254 0 .036 0 .068.004.1.004.362-.02.922-.082 1.244-.63.37-3.104 1.65-6.867 1.65-3.747 0-6.236-1.284-6.871-1.654-.063-.322-.09-.882-.082-1.244 0-.032.004-.064.004-.1.027-.918.128-1.92 1.036-2.254 1.94-.515 3.49-1.634 3.556-1.678a.554.554 0 0 0 .129-.756.515.515 0 0 0-.732-.133c-.016.012-1.469 1.058-3.234 1.521l-.039.012c-1.69.6-1.74 2.463-1.764 3.255 0 .037 0 .069-.004.101V15c-.004.21-.008 1.284.199 1.823a.512.512 0 0 0 .202.253C.52 17.157 3.32 19 8.006 19s7.487-1.847 7.603-1.924a.534.534 0 0 0 .203-.253c.195-.535.19-1.61.187-1.819z"/>
    </g>
</svg>
