<svg xmlns="http://www.w3.org/2000/svg" width="20" height="20" viewBox="0 0 20 20">
    <g fill="#7B7B7B" fill-rule="evenodd">
        <path d="M13.577 3.504H1.973C.884 3.504 0 4.21 0 5.08v13.294c0 .869.884 1.575 1.973 1.575h11.604c1.089 0 1.973-.706 1.973-1.575V5.08c-.005-.87-.89-1.576-1.973-1.576zm.588 14.865c0 .262-.266.474-.593.474H1.968c-.327 0-.593-.212-.593-.474V5.08c0-.26.266-.473.593-.473h11.604c.327 0 .593.212.593.474v13.29z"/>
        <path d="M18.014.018H6.41c-1.089 0-1.973.706-1.973 1.576 0 .306.307.55.69.55.383 0 .69-.244.69-.55 0-.261.266-.473.593-.473h11.604c.327 0 .593.212.593.473v13.294c0 .26-.266.473-.593.473-.383 0-.69.245-.69.551 0 .306.307.551.69.551 1.089 0 1.973-.706 1.973-1.575V1.594c0-.87-.884-1.576-1.973-1.576z"/>
    </g>
</svg>
