<svg xmlns="http://www.w3.org/2000/svg" width="22" height="22" viewBox="0 0 22 22">
    <path fill="#129AB5" stroke="#129AB5" d="M20.827 19.98l-4.861-4.86a8.492 8.492 0 0 0 2.093-5.592C18.06 4.823 14.231 1 9.53 1 4.824 1 1 4.827 1 9.528c0 4.7 3.828 8.527 8.53 8.527 2.137 0 4.094-.789 5.593-2.093l4.861 4.86c.115.116.27.178.422.178a.6.6 0 0 0 .421-1.02zM2.25 9.435c0-3.964 3.226-7.185 7.188-7.185 3.965 0 7.187 3.225 7.187 7.185 0 3.96-3.222 7.19-7.187 7.19-3.962 0-7.188-3.225-7.188-7.19z"/>
</svg>
